<svg width="59" height="59" viewBox="0 0 59 59" fill="none" xmlns="http://www.w3.org/2000/svg">
<g clip-path="url(#clip0_16_148)">
<rect width="59" height="59" fill="#141618"/>
<path d="M21.333 23.4091C17.9213 23.4091 15.1455 26.467 15.1455 30.2257C15.1455 33.9845 17.9213 37.0424 21.333 37.0424C24.7449 37.0424 27.5208 33.9845 27.5208 30.2257C27.5208 26.467 24.7449 23.4091 21.333 23.4091ZM21.333 33.5854C19.8275 33.5854 18.6025 32.0783 18.6025 30.2257C18.6025 28.3732 19.8275 26.8661 21.333 26.8661C22.8387 26.8661 24.0637 28.3732 24.0637 30.2257C24.0637 32.0783 22.8387 33.5854 21.333 33.5854Z" fill="#7CFFD8"/>
<path d="M37.667 23.4091C34.2552 23.4091 31.4793 26.467 31.4793 30.2257C31.4793 33.9845 34.2552 37.0424 37.667 37.0424C41.0788 37.0424 43.8545 33.9845 43.8545 30.2257C43.8545 26.467 41.0788 23.4091 37.667 23.4091ZM37.667 33.5854C36.1614 33.5854 34.9363 32.0783 34.9363 30.2257C34.9363 28.3732 36.1614 26.8661 37.667 26.8661C39.1726 26.8661 40.3975 28.3732 40.3975 30.2257C40.3975 32.0783 39.1726 33.5854 37.667 33.5854Z" fill="#7CFFD8"/>
<path d="M58.9974 41.7813C58.9566 41.0505 57.9229 23.7635 51.3584 13.4225C51.2241 13.2111 51.0454 13.0312 50.8348 12.8957C42.7177 7.66874 37.1887 7.68372 36.9574 7.6828C36.2868 7.69167 35.7095 8.08163 35.4304 8.64512L32.6419 13.989C31.6032 13.921 30.5544 13.8858 29.5 13.8858C28.4458 13.8858 27.397 13.921 26.3583 13.989L23.5728 8.65135C23.295 8.08462 22.7157 7.69179 22.0426 7.68292C21.81 7.68153 16.2816 7.66932 8.1654 12.8958C7.95487 13.0314 7.77614 13.2112 7.64189 13.4226C1.07722 23.7635 0.0434532 41.0505 0.00266028 41.7813C-0.0229218 42.2395 0.134719 42.689 0.440897 43.0309C0.745346 43.3707 7.97734 51.3173 17.9736 51.3173C18.0183 51.3173 18.0643 51.3171 18.1091 51.3169C18.6344 51.3131 19.1294 51.0706 19.4545 50.6582L24.0653 44.8067C25.8362 45.0089 27.6552 45.1143 29.5 45.1143C31.3449 45.1143 33.1639 45.0089 34.9347 44.8067L39.5456 50.6582C39.8706 51.0706 40.3656 51.3131 40.8909 51.3169C40.9364 51.3172 40.981 51.3173 41.0264 51.3173C51.0218 51.3173 58.2549 43.3707 58.5591 43.0309C58.8652 42.689 59.0228 42.2395 58.9974 41.7813ZM41.7295 47.8441L38.8468 44.1856C43.2349 43.2828 47.1735 41.7468 50.2477 39.6842C51.0405 39.1524 51.2521 38.0785 50.7202 37.2858C50.1885 36.493 49.1143 36.2812 48.3218 36.8134C43.7334 39.8918 36.8731 41.6572 29.5 41.6572C22.1273 41.6572 15.267 39.8918 10.6782 36.8137C9.88528 36.2819 8.81164 36.4936 8.27983 37.2863C7.74802 38.0791 7.95959 39.1528 8.75241 39.6847C11.8269 41.7469 15.7653 43.2831 20.1533 44.1857L17.2708 47.8439C10.5027 47.5299 5.11665 42.7969 3.50832 41.2263C3.77682 37.877 5.17 24.0635 10.3605 15.5959C15.4574 12.3786 19.3038 11.4838 21.0218 11.2351L22.6618 14.3777C18.8059 14.9407 15.1934 15.9754 12.1163 17.4241C11.2526 17.8307 10.8822 18.8605 11.2887 19.7243C11.6954 20.5879 12.7252 20.9583 13.5888 20.5519C17.9845 18.4825 23.6353 17.3428 29.5 17.3428C35.3651 17.3428 41.016 18.4827 45.4115 20.5524C45.6494 20.6644 45.8998 20.7175 46.1467 20.7175C46.7952 20.7175 47.417 20.3505 47.7117 19.7249C48.1182 18.8613 47.7477 17.8314 46.884 17.4247C43.8068 15.9759 40.1943 14.941 36.3381 14.3779L37.9781 11.2354C39.6959 11.484 43.5425 12.3788 48.6396 15.5962C53.8243 24.0548 55.222 37.8827 55.4916 41.2294C53.8874 42.8034 48.5253 47.5325 41.7295 47.8441Z" fill="#7CFFD8"/>
</g>
<defs>
<clipPath id="clip0_16_148">
<rect width="59" height="59" fill="white"/>
</clipPath>
</defs>
</svg>
