<svg width="44" height="45" viewBox="0 0 44 45" fill="none" xmlns="http://www.w3.org/2000/svg">
<g clip-path="url(#clip0_16_136)">
<rect width="44" height="45" fill="#141618"/>
<path d="M33.109 10.7156L15.0132 22.1141C13.9892 22.7606 13.5046 24.0376 13.8345 25.2186L15.7911 32.2499C15.9583 32.8494 16.4799 33.2479 17.0801 33.2479C17.1135 33.2479 17.1473 33.2467 17.1812 33.2441C17.8228 33.1965 18.3305 32.7077 18.4158 32.0563L18.9246 28.2009C18.9932 27.6821 19.2376 27.1996 19.6122 26.843L34.5451 12.6465C34.9964 12.2186 35.056 11.5178 34.6841 11.0166C34.3117 10.5149 33.6349 10.3852 33.109 10.7156ZM18.4182 25.5303C17.7472 26.1691 17.31 27.0323 17.1873 27.9609L16.9405 29.8311L15.5203 24.7271C15.4048 24.3136 15.5748 23.8665 15.9332 23.6403L29.1897 15.2901L18.4182 25.5303Z" fill="#7CFFD8"/>
<path d="M43.2842 3.28553C42.7188 2.79545 41.9386 2.66054 41.2476 2.93353L1.29596 18.696C0.504735 19.0081 -0.00401519 19.77 2.38748e-05 20.6371C0.00414887 21.5049 0.520375 22.2626 1.31624 22.5676L10.6482 26.1297L14.2884 38.1026C14.4883 38.7608 14.9929 39.2723 15.6379 39.4707C16.2826 39.669 16.9789 39.5272 17.4993 39.0919L22.9254 34.5679C23.186 34.3507 23.5581 34.3399 23.8301 34.542L33.617 41.8089C33.9691 42.0706 34.3846 42.2053 34.8049 42.2053C35.0511 42.2053 35.2989 42.1591 35.5368 42.0651C36.1801 41.8106 36.648 41.2466 36.7881 40.5566L43.9577 5.28531C44.1083 4.54263 43.8502 3.7764 43.2842 3.28553ZM42.2414 4.921L35.0718 40.1922C35.0459 40.3197 34.9561 40.3727 34.9049 40.393C34.8534 40.4133 34.7515 40.4359 34.6474 40.3584L24.8602 33.0912C24.4227 32.7663 23.9083 32.6051 23.3948 32.6051C22.8347 32.6051 22.2753 32.7971 21.8181 33.178L16.3908 37.7031C16.2942 37.7839 16.1939 37.7695 16.1429 37.7538C16.0915 37.738 15.9998 37.6931 15.9625 37.5704L12.1946 25.1773C12.114 24.9125 11.9181 24.7007 11.6641 24.6037L1.93035 20.8883C1.7846 20.8325 1.75358 20.7162 1.75315 20.6284C1.75272 20.5414 1.78263 20.4256 1.927 20.3687L41.8787 4.60627C41.8789 4.60618 41.8792 4.60609 41.8794 4.606C42.0092 4.55476 42.1052 4.61365 42.1509 4.6532C42.1968 4.69319 42.2698 4.78108 42.2414 4.921Z" fill="#7CFFD8"/>
<path d="M36.7367 22.1609C36.2635 22.0558 35.7969 22.363 35.6942 22.8468L35.561 23.4743C35.4583 23.9582 35.7585 24.4355 36.2316 24.5405C36.2943 24.5544 36.3567 24.5611 36.4185 24.5611C36.8219 24.5611 37.185 24.2744 37.2742 23.8547L37.4074 23.2272C37.51 22.7434 37.2097 22.266 36.7367 22.1609Z" fill="#7CFFD8"/>
<path d="M35.8601 26.29C35.3864 26.185 34.9201 26.4921 34.8175 26.9759L32.8015 36.4726C32.6988 36.9564 32.9991 37.4338 33.4721 37.5388C33.5348 37.5527 33.5973 37.5594 33.6589 37.5594C34.0625 37.5594 34.4255 37.2727 34.5147 36.853L36.5307 27.3562C36.6334 26.8724 36.3331 26.3951 35.8601 26.29Z" fill="#7CFFD8"/>
</g>
<defs>
<clipPath id="clip0_16_136">
<rect width="44" height="45" fill="white"/>
</clipPath>
</defs>
</svg>
