<svg width="674" height="343" viewBox="0 0 674 343" fill="none" xmlns="http://www.w3.org/2000/svg">
<path d="M197.228 5.33337L232.728 40.3334C232.728 40.3334 359.6 37.4875 440.908 37.3931C529.494 37.2904 663.649 36.2551 667.727 40.3334C671.571 44.1772 673.131 125.718 673.358 180.5C673.612 241.591 671.061 333.5 667.727 336.833C664.394 340.167 352.908 342.439 352.908 342.439C352.908 342.439 8.36237 340.968 4.22773 336.833C0.442675 333.048 0.223816 241.574 0.014168 180.5C-0.226079 110.512 2.64709 2.91401 4.22773 1.33337C7.22782 -1.66671 184.228 1.33337 184.228 1.33337H191.728C193.153 1.33341 197.228 5.33337 197.228 5.33337Z" fill="#F9F89E"/>
</svg>
