<svg width="674" height="343" viewBox="0 0 674 343" fill="none" xmlns="http://www.w3.org/2000/svg">
<path d="M197.32 5.33337L232.82 40.3334C232.82 40.3334 359.693 37.4875 441 37.3931C529.586 37.2904 663.741 36.2551 667.819 40.3334C671.663 44.1772 673.223 125.718 673.451 180.5C673.704 241.591 671.153 333.5 667.819 336.833C664.486 340.167 353 342.439 353 342.439C353 342.439 8.45465 340.968 4.32002 336.833C0.53496 333.048 0.316101 241.574 0.106453 180.5C-0.133794 110.512 2.73938 2.91401 4.32002 1.33337C7.3201 -1.66671 184.32 1.33337 184.32 1.33337H191.82C193.245 1.33341 197.32 5.33337 197.32 5.33337Z" fill="currentColor"/>
</svg>
