<svg width="668" height="338" viewBox="0 0 668 338" fill="none" xmlns="http://www.w3.org/2000/svg">
<path d="M0 12.88V44.0345C0 48.5905 0 50.8684 0.900692 52.6023C1.6597 54.0635 2.85106 55.2549 4.3122 56.0139C6.04611 56.9146 8.32407 56.9146 12.88 56.9146H218.797C229.263 56.9146 234.497 56.9146 236.779 54.8586C238.671 53.1539 239.639 50.6499 239.385 48.1156C239.078 45.0591 235.205 41.5399 227.458 34.5016L227.458 34.5015L193.167 3.347C191.791 2.09651 191.103 1.47126 190.315 1.02812C189.646 0.65131 188.925 0.372925 188.176 0.201545C187.295 0 186.366 0 184.506 0H12.88C8.32407 0 6.04611 0 4.3122 0.900692C2.85106 1.6597 1.6597 2.85106 0.900692 4.3122C0 6.04611 0 8.32407 0 12.88Z" fill="#D2BFE6"/>
<rect y="35.5762" width="667.516" height="302.165" rx="16" fill="#D2BFE6"/>
</svg>
