<svg width="54" height="56" viewBox="0 0 54 56" fill="none" xmlns="http://www.w3.org/2000/svg">
<g filter="url(#filter0_d_29_554)">
<path d="M27.0059 39.9987C26.0471 40.0119 25.1195 39.6581 24.413 39.0096C23.7066 38.3612 23.2748 37.4672 23.2059 36.5107H18.5489C18.2185 36.5223 17.889 36.4671 17.5803 36.3486C17.2716 36.2301 16.9899 36.0507 16.7521 35.821C16.5142 35.5912 16.325 35.316 16.1958 35.0116C16.0666 34.7072 16 34.3799 16 34.0492C16 33.7185 16.0666 33.3913 16.1958 33.0869C16.325 32.7825 16.5142 32.5072 16.7521 32.2775C16.9899 32.0478 17.2716 31.8683 17.5803 31.7498C17.889 31.6313 18.2185 31.5762 18.5489 31.5877C18.5489 31.5767 18.5489 28.5727 18.5489 26.7877V26.6687C18.5489 24.9803 19.083 23.3351 20.0749 21.9687C21.0655 20.5931 22.4497 19.5499 24.0449 18.9767V18.8687C24.0694 18.0996 24.3922 17.3702 24.9449 16.8348C25.4976 16.2994 26.2369 16 27.0064 16C27.776 16 28.5153 16.2994 29.068 16.8348C29.6207 17.3702 29.9435 18.0996 29.9679 18.8687V18.9767C31.5638 19.5483 32.9493 20.5896 33.9419 21.9637C34.9339 23.3301 35.468 24.9753 35.4679 26.6637V31.5857C35.7972 31.5763 36.1249 31.6331 36.4318 31.7526C36.7387 31.8721 37.0186 32.0519 37.2547 32.2815C37.4909 32.511 37.6787 32.7856 37.8069 33.089C37.9351 33.3924 38.0011 33.7184 38.0011 34.0477C38.0011 34.3771 37.9351 34.7031 37.8069 35.0065C37.6787 35.3098 37.4909 35.5844 37.2547 35.814C37.0186 36.0435 36.7387 36.2234 36.4318 36.3429C36.1249 36.4624 35.7972 36.5191 35.4679 36.5097H30.8059C30.7371 37.4663 30.3053 38.3604 29.5989 39.009C28.8925 39.6576 27.9649 40.0117 27.0059 39.9987ZM24.9009 36.5117C24.9679 37.0226 25.2184 37.4917 25.6057 37.8316C25.993 38.1715 26.4907 38.3589 27.0059 38.3589C27.5212 38.3589 28.0189 38.1715 28.4062 37.8316C28.7935 37.4917 29.044 37.0226 29.1109 36.5117H24.9009ZM27.0059 17.6397C26.6748 17.6349 26.3553 17.7616 26.1174 17.992C25.8796 18.2223 25.7427 18.5376 25.7369 18.8687V20.1867L25.1249 20.3577C23.7354 20.7351 22.5066 21.555 21.6246 22.6932C20.7426 23.8314 20.2555 25.2259 20.2369 26.6657V31.5877C20.2298 32.0297 20.0477 32.4508 19.7305 32.7586C19.4133 33.0665 18.9869 33.2359 18.5449 33.2297C18.3272 33.2297 18.1184 33.3162 17.9644 33.4702C17.8104 33.6242 17.7239 33.833 17.7239 34.0507C17.7239 34.2685 17.8104 34.4773 17.9644 34.6313C18.1184 34.7852 18.3272 34.8717 18.5449 34.8717H35.4629C35.6807 34.8717 35.8895 34.7852 36.0435 34.6313C36.1974 34.4773 36.2839 34.2685 36.2839 34.0507C36.2839 33.833 36.1974 33.6242 36.0435 33.4702C35.8895 33.3162 35.6807 33.2297 35.4629 33.2297C35.0211 33.2356 34.595 33.0661 34.278 32.7583C33.9611 32.4505 33.7791 32.0295 33.7719 31.5877V26.6657C33.7533 25.2258 33.266 23.8312 32.3839 22.6929C31.5017 21.5547 30.2727 20.735 28.8829 20.3577L28.2709 20.1867V18.8687C28.2652 18.5383 28.1289 18.2236 27.8919 17.9934C27.6549 17.7631 27.3364 17.636 27.0059 17.6397Z" fill="url(#paint0_linear_29_554)"/>
</g>
<g filter="url(#filter1_d_29_554)">
<path d="M27.0059 39.9987C26.0471 40.0119 25.1195 39.6581 24.413 39.0096C23.7066 38.3612 23.2748 37.4672 23.2059 36.5107H18.5489C18.2185 36.5223 17.889 36.4671 17.5803 36.3486C17.2716 36.2301 16.9899 36.0507 16.7521 35.821C16.5142 35.5912 16.325 35.316 16.1958 35.0116C16.0666 34.7072 16 34.3799 16 34.0492C16 33.7185 16.0666 33.3913 16.1958 33.0869C16.325 32.7825 16.5142 32.5072 16.7521 32.2775C16.9899 32.0478 17.2716 31.8683 17.5803 31.7498C17.889 31.6313 18.2185 31.5762 18.5489 31.5877C18.5489 31.5767 18.5489 28.5727 18.5489 26.7877V26.6687C18.5489 24.9803 19.083 23.3351 20.0749 21.9687C21.0655 20.5931 22.4497 19.5499 24.0449 18.9767V18.8687C24.0694 18.0996 24.3922 17.3702 24.9449 16.8348C25.4976 16.2994 26.2369 16 27.0064 16C27.776 16 28.5153 16.2994 29.068 16.8348C29.6207 17.3702 29.9435 18.0996 29.9679 18.8687V18.9767C31.5638 19.5483 32.9493 20.5896 33.9419 21.9637C34.9339 23.3301 35.468 24.9753 35.4679 26.6637V31.5857C35.7972 31.5763 36.1249 31.6331 36.4318 31.7526C36.7387 31.8721 37.0186 32.0519 37.2547 32.2815C37.4909 32.511 37.6787 32.7856 37.8069 33.089C37.9351 33.3924 38.0011 33.7184 38.0011 34.0477C38.0011 34.3771 37.9351 34.7031 37.8069 35.0065C37.6787 35.3098 37.4909 35.5844 37.2547 35.814C37.0186 36.0435 36.7387 36.2234 36.4318 36.3429C36.1249 36.4624 35.7972 36.5191 35.4679 36.5097H30.8059C30.7371 37.4663 30.3053 38.3604 29.5989 39.009C28.8925 39.6576 27.9649 40.0117 27.0059 39.9987ZM24.9009 36.5117C24.9679 37.0226 25.2184 37.4917 25.6057 37.8316C25.993 38.1715 26.4907 38.3589 27.0059 38.3589C27.5212 38.3589 28.0189 38.1715 28.4062 37.8316C28.7935 37.4917 29.044 37.0226 29.1109 36.5117H24.9009ZM27.0059 17.6397C26.6748 17.6349 26.3553 17.7616 26.1174 17.992C25.8796 18.2223 25.7427 18.5376 25.7369 18.8687V20.1867L25.1249 20.3577C23.7354 20.7351 22.5066 21.555 21.6246 22.6932C20.7426 23.8314 20.2555 25.2259 20.2369 26.6657V31.5877C20.2298 32.0297 20.0477 32.4508 19.7305 32.7586C19.4133 33.0665 18.9869 33.2359 18.5449 33.2297C18.3272 33.2297 18.1184 33.3162 17.9644 33.4702C17.8104 33.6242 17.7239 33.833 17.7239 34.0507C17.7239 34.2685 17.8104 34.4773 17.9644 34.6313C18.1184 34.7852 18.3272 34.8717 18.5449 34.8717H35.4629C35.6807 34.8717 35.8895 34.7852 36.0435 34.6313C36.1974 34.4773 36.2839 34.2685 36.2839 34.0507C36.2839 33.833 36.1974 33.6242 36.0435 33.4702C35.8895 33.3162 35.6807 33.2297 35.4629 33.2297C35.0211 33.2356 34.595 33.0661 34.278 32.7583C33.9611 32.4505 33.7791 32.0295 33.7719 31.5877V26.6657C33.7533 25.2258 33.266 23.8312 32.3839 22.6929C31.5017 21.5547 30.2727 20.735 28.8829 20.3577L28.2709 20.1867V18.8687C28.2652 18.5383 28.1289 18.2236 27.8919 17.9934C27.6549 17.7631 27.3364 17.636 27.0059 17.6397Z" fill="#ADB3BF"/>
</g>
<defs>
<filter id="filter0_d_29_554" x="12" y="12" width="42.0011" height="43.999" filterUnits="userSpaceOnUse" color-interpolation-filters="sRGB">
<feFlood flood-opacity="0" result="BackgroundImageFix"/>
<feColorMatrix in="SourceAlpha" type="matrix" values="0 0 0 0 0 0 0 0 0 0 0 0 0 0 0 0 0 0 127 0" result="hardAlpha"/>
<feOffset dx="6" dy="6"/>
<feGaussianBlur stdDeviation="5"/>
<feColorMatrix type="matrix" values="0 0 0 0 0.0862745 0 0 0 0 0.0862745 0 0 0 0 0.0901961 0 0 0 0.796 0"/>
<feBlend mode="normal" in2="BackgroundImageFix" result="effect1_dropShadow_29_554"/>
<feBlend mode="normal" in="SourceGraphic" in2="effect1_dropShadow_29_554" result="shape"/>
</filter>
<filter id="filter1_d_29_554" x="0" y="0" width="42.0011" height="43.999" filterUnits="userSpaceOnUse" color-interpolation-filters="sRGB">
<feFlood flood-opacity="0" result="BackgroundImageFix"/>
<feColorMatrix in="SourceAlpha" type="matrix" values="0 0 0 0 0 0 0 0 0 0 0 0 0 0 0 0 0 0 127 0" result="hardAlpha"/>
<feOffset dx="-6" dy="-6"/>
<feGaussianBlur stdDeviation="5"/>
<feColorMatrix type="matrix" values="0 0 0 0 0.219608 0 0 0 0 0.243137 0 0 0 0 0.27451 0 0 0 0.749 0"/>
<feBlend mode="normal" in2="BackgroundImageFix" result="effect1_dropShadow_29_554"/>
<feBlend mode="normal" in="SourceGraphic" in2="effect1_dropShadow_29_554" result="shape"/>
</filter>
<linearGradient id="paint0_linear_29_554" x1="35.383" y1="38.1992" x2="16.4607" y2="19.4176" gradientUnits="userSpaceOnUse">
<stop stop-color="#008EFF"/>
<stop offset="1" stop-color="#69D9FF"/>
</linearGradient>
</defs>
</svg>
