<svg width="90" height="91" viewBox="0 0 90 91" fill="none" xmlns="http://www.w3.org/2000/svg">
<g clip-path="url(#clip0_16_587)">
<path d="M27.9896 26.1265C20.2742 23.9238 12.2537 28.4622 10.0752 36.2633C7.8967 44.0643 12.3852 52.1742 20.1005 54.3769C26.3558 56.1627 32.8116 53.5174 36.1921 48.2949L25.6557 45.2868C23.3411 44.626 21.9946 42.1931 22.6481 39.8528C23.3017 37.5125 25.7078 36.1509 28.0224 36.8117L45.1786 41.7098C50.0603 31.8135 61.3539 26.5011 72.2663 29.6165C84.6109 33.1408 91.7923 46.1162 88.3067 58.598C84.8212 71.0796 71.9883 78.3414 59.6438 74.8171C50.041 72.0756 43.5624 63.6146 42.7989 54.1163C37.235 61.8081 27.3366 65.5936 17.7338 62.852C5.38921 59.3277 -1.79232 46.3518 1.69323 33.8702C5.17882 21.3885 18.0117 14.127 30.3563 17.6514C34.7814 18.9147 38.5536 21.4001 41.4021 24.6438C42.9991 26.4622 42.8357 29.2452 41.0373 30.8599C39.2389 32.4746 36.4864 32.3095 34.8895 30.4911C33.1131 28.4684 30.7655 26.919 27.9896 26.1265ZM69.8996 38.0916C62.1839 35.8888 54.1634 40.4272 51.9849 48.2283C49.8064 56.0294 54.2949 64.1392 62.0105 66.342C69.7256 68.5446 77.7462 64.0061 79.9247 56.205C82.1032 48.4039 77.6147 40.2942 69.8996 38.0916Z" fill="#7CFFD8"/>
</g>
<defs>
<clipPath id="clip0_16_587">
<rect width="90" height="91" fill="white"/>
</clipPath>
</defs>
</svg>
