<svg width="119" height="119" viewBox="0 0 119 119" fill="none" xmlns="http://www.w3.org/2000/svg">
<g clip-path="url(#clip0_16_582)">
<path fill-rule="evenodd" clip-rule="evenodd" d="M55.7032 99.3745C53.7001 98.5172 52.7766 96.1947 53.6385 94.1811C54.5003 92.1676 56.8164 91.2365 58.8194 92.0939C60.8225 92.9512 61.7478 95.2697 60.886 97.2832C60.0242 99.2968 57.7062 100.232 55.7032 99.3745ZM41.8563 101.03C62.9591 110.062 65.5788 100.3 65.5788 100.3L69.6324 90.7606L49.4979 82.1426L50.7225 79.2815L78.8527 91.3218C78.8527 91.3218 91.6947 98.6425 100.855 77.2415C110.015 55.8405 97.9106 51.5521 97.9106 51.5521L90.8749 48.5407L86.6226 58.4754C86.6226 58.4754 81.9321 70.4795 69.9595 65.355L49.9871 56.8064C49.9871 56.8064 38.8429 51.8257 34.0992 62.9084L26.2573 81.2297C26.2573 81.2297 19.8061 91.5918 41.8563 101.03ZM62.9899 19.3164C64.993 20.1737 65.9124 22.4945 65.0506 24.508C64.1887 26.5215 61.8767 27.4543 59.8736 26.597C57.8706 25.7396 56.9454 23.4212 57.8072 21.4077C58.669 19.3942 60.9869 18.459 62.9899 19.3164ZM76.8327 17.6593C55.7341 8.62867 53.1144 18.3907 53.1144 18.3907L49.0608 27.9303L69.1953 36.5483L67.9707 39.4094L39.8364 27.3673C39.8364 27.3673 26.9943 20.0466 17.8342 41.4476C8.67412 62.8487 20.7826 67.1388 20.7826 67.1388L27.8142 70.1485L32.0664 60.2137C32.0664 60.2137 36.7569 48.2096 48.7337 53.336L68.7019 61.8828C68.7019 61.8828 79.8462 66.8635 84.5898 55.7807L92.4318 37.4594C92.4318 37.4594 98.883 27.0973 76.8327 17.6593Z" fill="#7CFFD8"/>
</g>
<defs>
<clipPath id="clip0_16_582">
<rect width="90.4078" height="90.4078" fill="white" transform="translate(35.5747) rotate(23.172)"/>
</clipPath>
</defs>
</svg>
