<svg width="120" height="120" viewBox="0 0 120 120" fill="none" xmlns="http://www.w3.org/2000/svg">
<g clip-path="url(#clip0_16_577)">
<path d="M48.9136 49.4606C41.8229 52.7159 38.7137 61.103 41.9691 68.1937C45.2244 75.2843 53.6113 78.3933 60.702 75.138C64.3587 73.4592 66.9537 70.4231 68.1685 66.8897C68.9294 64.6764 71.3405 63.4989 73.5539 64.2598C75.7675 65.0207 76.9447 67.4317 76.1837 69.6451C74.2466 75.2796 70.0878 80.1553 64.2384 82.8407C52.8936 88.0491 39.4747 83.0748 34.2663 71.73C29.0579 60.3852 34.0325 46.9662 45.3772 41.7579C51.2019 39.0837 57.5812 39.0965 63.1008 41.2728C65.2783 42.1312 66.3473 44.5924 65.4889 46.7697C64.6303 48.9471 62.1693 50.0163 59.9919 49.1577C56.5306 47.7931 52.555 47.7888 48.9136 49.4606Z" fill="#7CFFD8"/>
<path d="M86.0376 35.5261C87.4554 34.8752 89.1329 35.4969 89.784 36.9149L92.1415 42.0501L97.2767 39.6925C98.6945 39.0416 100.372 39.6633 101.023 41.0813C101.674 42.4994 101.052 44.1768 99.6342 44.8277L94.4991 47.1852L96.8566 52.3204C97.5076 53.7384 96.8856 55.4158 95.4678 56.0668C94.05 56.7177 92.3725 56.096 91.7215 54.678L89.3639 49.5428L84.2287 51.9003C82.8109 52.5513 81.1334 51.9296 80.4824 50.5115C79.8314 49.0935 80.4534 47.4161 81.8712 46.7652L87.0064 44.4076L84.6488 39.2725C83.9978 37.8544 84.6198 36.177 86.0376 35.5261Z" fill="#7CFFD8"/>
<path d="M73.1997 41.4197C74.6175 40.7687 76.2951 41.3904 76.9461 42.8085L79.3036 47.9436L84.4388 45.5861C85.8566 44.9352 87.5341 45.5569 88.1852 46.9749C88.8362 48.3929 88.2142 50.0703 86.7963 50.7212L81.6612 53.0788L84.0187 58.214C84.6697 59.632 84.0477 61.3094 82.6299 61.9603C81.2121 62.6112 79.5346 61.9895 78.8836 60.5715L76.526 55.4364L71.3908 57.7939C69.9728 58.4449 68.2955 57.8231 67.6445 56.4051C66.9935 54.9871 67.6153 53.3098 69.0333 52.6587L74.1685 50.3012L71.8109 45.166C71.1599 43.748 71.7819 42.0706 73.1997 41.4197Z" fill="#7CFFD8"/>
<path d="M34.063 22.7176C34.941 21.4676 36.4239 20.7868 37.9442 20.9357L68.6363 23.9432C70.9657 24.1715 72.6687 26.2449 72.4405 28.5742C72.2123 30.9036 70.1391 32.6067 67.8097 32.3785L39.578 29.6122L19.0326 58.8629L34.0937 91.6684L69.6684 95.1544L85.9732 71.9417C87.3185 70.0265 89.9614 69.5642 91.8766 70.9096C93.7918 72.2549 94.2541 74.8978 92.9088 76.813L75.1833 102.049C74.3054 103.299 72.8226 103.98 71.3021 103.831L30.8446 99.8663C29.3445 99.7194 28.0355 98.7871 27.4065 97.417L10.3143 60.1871C9.68542 58.8172 9.83142 57.2165 10.6978 55.9831L34.063 22.7176Z" fill="#7CFFD8"/>
</g>
<defs>
<clipPath id="clip0_16_577">
<rect width="90.4078" height="90.4078" fill="white" transform="translate(0 37.7207) rotate(-24.6598)"/>
</clipPath>
</defs>
</svg>
