<svg width="113" height="113" viewBox="0 0 113 113" fill="none" xmlns="http://www.w3.org/2000/svg">
<g clip-path="url(#clip0_16_589)">
<path d="M2.76741 34.795C1.23901 29.552 4.25025 24.0627 9.4932 22.5344L77.3018 2.76716C82.5448 1.23876 88.034 4.25 89.5624 9.49295L92.7252 20.3423C93.3802 22.5893 92.0896 24.9419 89.8427 25.5969C87.5958 26.2519 85.2431 24.9614 84.5881 22.7144L81.4254 11.865C81.207 11.116 80.423 10.6858 79.6739 10.9042L11.8653 30.6714C11.1163 30.8897 10.6861 31.6739 10.9044 32.4229L30.6716 100.231C30.89 100.981 31.6742 101.411 32.4231 101.192L105.656 79.8437C107.903 79.1887 110.256 80.4793 110.911 82.7262C111.566 84.9731 110.275 87.3258 108.028 87.9808L34.7952 109.329C29.5523 110.858 24.063 107.847 22.5346 102.604L2.76741 34.795ZM53.8466 43.4474C56.0935 42.7923 58.4461 44.0829 59.1011 46.3298L65.4266 68.0286C67.0156 73.4793 66.7101 78.0038 64.3738 81.4747C62.1441 84.7874 58.6756 86.1822 56.2137 86.8999C53.9667 87.5549 51.6142 86.2644 50.9591 84.0174C50.3041 81.7705 51.5947 79.4179 53.8416 78.7629C55.7195 78.2155 56.7999 77.5485 57.3424 76.7424C57.7782 76.0945 58.468 74.4431 57.2896 70.4007L50.9641 48.7019C50.3091 46.4549 51.5996 44.1024 53.8466 43.4474ZM71.5728 43.1657C73.0558 39.7995 76.0916 36.9626 80.97 35.5405C85.4991 34.2202 89.3678 34.7738 92.3814 36.5387C94.4008 37.7218 95.0788 40.318 93.8959 42.3375C92.713 44.357 90.1167 45.0351 88.0974 43.8521C87.3175 43.3955 85.8939 42.9336 83.3421 43.6775C80.6259 44.4693 79.7058 45.7285 79.3293 46.5829C78.8655 47.6349 78.939 48.7632 79.1034 49.3274C79.2679 49.8916 79.8122 50.8827 80.7686 51.5206C81.5454 52.0389 82.998 52.6063 85.7141 51.8145C86.1248 51.6948 86.5391 51.6401 86.9453 51.6444C90.6916 51.1078 93.8787 51.9212 96.3807 53.5909C99.2605 55.5129 100.852 58.3138 101.478 60.462C102.104 62.6102 102.267 65.8274 100.871 68.9958C99.3884 72.3622 96.3526 75.1989 91.4742 76.621C86.9451 77.9413 83.0763 77.3875 80.0628 75.6228C78.0434 74.4398 77.3655 71.8436 78.5482 69.8237C79.7312 67.8044 82.3274 67.1264 84.3468 68.3093C85.1267 68.7659 86.5503 69.2278 89.1021 68.484C91.8182 67.6922 92.7383 66.4328 93.1149 65.5785C93.5786 64.5263 93.5052 63.3982 93.3408 62.8341C93.1763 62.2699 92.632 61.2791 91.6755 60.6409C90.8989 60.1228 89.4462 59.5551 86.73 60.3469C86.3194 60.4666 85.9051 60.5215 85.4989 60.5169C81.7525 61.0534 78.5655 60.2402 76.0635 58.5706C73.1836 56.6483 71.5926 53.8476 70.9664 51.6995C70.3402 49.5513 70.1769 46.3344 71.5728 43.1657Z" fill="#7CFFD8"/>
</g>
<defs>
<clipPath id="clip0_16_589">
<rect width="90.4078" height="90.4078" fill="white" transform="translate(0 25.3018) rotate(-16.2522)"/>
</clipPath>
</defs>
</svg>
