<svg width="1931" height="930" viewBox="0 0 1931 930" fill="none" xmlns="http://www.w3.org/2000/svg">
<rect width="1930" height="930" rx="10" fill="#0F1014"/>
<rect width="1930" height="930" rx="10" fill="#7CFFD8" fill-opacity="0.38"/>
<path d="M1024.64 201.127C908.865 56.7124 608.959 0 608.959 0H0V370.319C151.29 365.555 255.076 409.548 356.86 521.584C467.917 643.827 501.447 768.544 466.663 930H1479.54C1479.54 930 1538.41 706.439 1465.53 600.018C1388.04 486.846 1232.89 571.674 1138.37 472.283C1059.23 389.076 1096.47 290.719 1024.64 201.127Z" fill="#7CFFD8"/>
<path d="M1658.44 204.535C1576.12 152.261 1521 0 1521 0H1634.57C1634.57 0 1677.39 94.5257 1730.08 130.722C1795.28 175.521 1931 169.037 1931 169.037V238.343C1931 238.343 1748.16 261.501 1658.44 204.535Z" fill="#7CFFD8"/>
</svg>
