<svg width="29" height="18" viewBox="0 0 29 18" fill="none" xmlns="http://www.w3.org/2000/svg">
<path d="M1.20969 0C0.889237 -5.23938e-07 0.581879 0.127149 0.355082 0.353536C0.128284 0.579924 0.000579476 0.88705 0 1.2075L0 16.0344C0.00230972 16.3537 0.130777 16.6591 0.357388 16.8841C0.583999 17.1091 0.890369 17.2353 1.20969 17.2353H26.8034C27.1237 17.2353 27.4308 17.1081 27.6573 16.8816C27.8837 16.6552 28.0109 16.3481 28.0109 16.0278V1.2075C28.0109 0.887251 27.8837 0.580119 27.6573 0.353669C27.4308 0.127219 27.1237 0 26.8034 0H1.20969ZM26.8034 0.875H26.8384L14 10.0647L1.1725 0.877188H26.7925L26.8034 0.875ZM10.5 8.63188L0.91 15.9359C0.896875 15.9359 0.888125 15.9578 0.875 15.9688V1.75L10.5 8.63188ZM11.2438 9.16563L13.7506 10.9594C13.8247 11.0121 13.9134 11.0404 14.0044 11.0403C14.0961 11.0408 14.1856 11.0125 14.2603 10.9594L16.765 9.16563L26.2128 16.3603H1.78719L11.2438 9.16563ZM27.125 15.9688C27.1144 15.9567 27.1027 15.9457 27.09 15.9359L17.5 8.63188L27.125 1.74125V15.9688Z" fill="#7CFFD8"/>
</svg>
