<svg width="28" height="28" viewBox="0 0 28 28" fill="none" xmlns="http://www.w3.org/2000/svg">
<path d="M4.83492 27.1042H23.1651C23.9505 27.1034 24.7035 26.791 25.2589 26.2356C25.8142 25.6802 26.1266 24.9272 26.1275 24.1418V19.7553C26.1259 18.2241 25.517 16.756 24.4343 15.6732C23.3517 14.5903 21.8837 13.9811 20.3525 13.9792H7.6475C6.11626 13.9811 4.64829 14.5903 3.56565 15.6732C2.483 16.756 1.87409 18.2241 1.8725 19.7553V24.1418C1.87337 24.9272 2.18576 25.6802 2.74113 26.2356C3.2965 26.791 4.0495 27.1034 4.83492 27.1042ZM2.85687 19.7553C2.85818 18.4851 3.36328 17.2672 4.26139 16.3689C5.15949 15.4706 6.37724 14.9652 7.6475 14.9636H20.3525C21.6228 14.9652 22.8405 15.4706 23.7386 16.3689C24.6367 17.2672 25.1418 18.4851 25.1431 19.7553V24.1418C25.1425 24.6663 24.934 25.169 24.5631 25.5399C24.1923 25.9107 23.6895 26.1193 23.1651 26.1199H4.83492C4.31049 26.1193 3.8077 25.9107 3.43687 25.5399C3.06604 25.169 2.85745 24.6663 2.85687 24.1418V19.7553Z" fill="#7CFFD8"/>
<path d="M14 12.414C15.139 12.414 16.2525 12.0763 17.1996 11.4434C18.1467 10.8106 18.8848 9.91117 19.3207 8.85882C19.7566 7.80648 19.8707 6.64851 19.6485 5.53134C19.4262 4.41418 18.8777 3.388 18.0723 2.58257C17.2669 1.77714 16.2407 1.22863 15.1235 1.00641C14.0064 0.784197 12.8484 0.898247 11.7961 1.33414C10.7437 1.77004 9.84426 2.5082 9.21144 3.45529C8.57861 4.40237 8.24084 5.51584 8.24084 6.65489C8.24258 8.18178 8.8499 9.64563 9.92958 10.7253C11.0092 11.805 12.4731 12.4123 14 12.414ZM14 1.88013C14.9443 1.88013 15.8675 2.16016 16.6527 2.68482C17.4379 3.20948 18.0499 3.9552 18.4113 4.82767C18.7727 5.70015 18.8672 6.66019 18.683 7.58641C18.4988 8.51262 18.044 9.3634 17.3763 10.0312C16.7085 10.6989 15.8577 11.1537 14.9315 11.3379C14.0053 11.5221 13.0452 11.4276 12.1728 11.0662C11.3003 10.7048 10.5546 10.0928 10.0299 9.30761C9.50525 8.52241 9.22522 7.59925 9.22522 6.65489C9.22667 5.38899 9.73019 4.17535 10.6253 3.28022C11.5204 2.3851 12.7341 1.88158 14 1.88013Z" fill="#7CFFD8"/>
</svg>
