<svg width="28" height="28" viewBox="0 0 28 28" fill="none" xmlns="http://www.w3.org/2000/svg">
<path d="M19.9999 0C15.5889 0 11.9999 3.589 11.9999 8C11.9999 9.6425 12.4989 11.17 13.3509 12.442L0.146381 25.6465C-0.0491191 25.842 -0.0491191 26.158 0.146381 26.3535C0.243881 26.451 0.371881 26.5 0.499881 26.5C0.627881 26.5 0.755881 26.451 0.853381 26.3535L2.99988 24.207L6.64638 27.8535C6.74388 27.951 6.87188 28 6.99988 28C7.12788 28 7.25588 27.951 7.35338 27.8535C7.54888 27.658 7.54888 27.342 7.35338 27.1465L3.70688 23.5L5.49988 21.707L8.14638 24.3535C8.24388 24.451 8.37188 24.5 8.49988 24.5C8.62788 24.5 8.75588 24.451 8.85338 24.3535C9.04888 24.158 9.04888 23.842 8.85338 23.6465L6.20688 21L7.99988 19.207L11.6464 22.8535C11.7439 22.951 11.8719 23 11.9999 23C12.1279 23 12.2559 22.951 12.3534 22.8535C12.5489 22.658 12.5489 22.342 12.3534 22.1465L8.70688 18.5L13.9679 13.239C15.4359 14.9265 17.5929 16 19.9999 16C24.4109 16 27.9999 12.411 27.9999 8C27.9999 3.589 24.4109 0 19.9999 0ZM19.9999 15C16.1399 15 12.9999 11.86 12.9999 8C12.9999 4.14 16.1399 1 19.9999 1C23.8599 1 26.9999 4.14 26.9999 8C26.9999 11.86 23.8599 15 19.9999 15Z" fill="#7CFFD8"/>
</svg>
